/* XPM */
static const char *codafile_xpm[] = {
"32 32 3 1",
" 	s LightBlue	c LightBlue",
".	s Red	c Red",
"X	s black	c black",
"                                ",
"                                ",
"                                ",
"                                ",
"                                ",
"                                ",
" ....    ....   .....     ...   ",
"..   .  ..  ..  .   ..   .. ..  ",
".       .    .  .    .   .   .  ",
".       .    .  .    .  ..   .. ",
".       .    .  .    .  ....... ",
"..   .  ..  ..  .   .. ..     ..",
" ....    ....   .....  .       .",
"                                ",
"                                ",
"                                ",
"                                ",
"                                ",
"  .....   ...    .      .....   ",
"  .        .     .      .       ",
"  .        .     .      .       ",
"  ....     .     .      ....    ",
"  .        .     .      .       ",
"  .        .     .      .       ",
"  .       ...    .....  .....   ",
"                                ",
"                                ",
"                                ",
"                                ",
"                                ",
"                                ",
"                                "};
